<svg width="25" height="21" viewBox="0 0 25 21" fill="none" xmlns="http://www.w3.org/2000/svg">
<path d="M6.06152 5.42985H6.07246M6.06152 16.2936H6.07246M3.87402 1.80859H21.374C22.5821 1.80859 23.5615 2.61924 23.5615 3.61922V7.24047C23.5615 8.24045 22.5821 9.0511 21.374 9.0511H3.87402C2.6659 9.0511 1.68652 8.24045 1.68652 7.24047V3.61922C1.68652 2.61924 2.6659 1.80859 3.87402 1.80859ZM3.87402 12.6724H21.374C22.5821 12.6724 23.5615 13.483 23.5615 14.483V18.1042C23.5615 19.1042 22.5821 19.9149 21.374 19.9149H3.87402C2.6659 19.9149 1.68652 19.1042 1.68652 18.1042V14.483C1.68652 13.483 2.6659 12.6724 3.87402 12.6724Z" stroke="#1873DE" stroke-width="1.81062" stroke-linecap="round" stroke-linejoin="round"/>
</svg>
