<svg width="13" height="17" viewBox="0 0 13 17" fill="none" xmlns="http://www.w3.org/2000/svg">
<path d="M8.23576 6.82251L4.76354 10.5841M4.76354 6.82251L8.23576 10.5841M12.0552 9.45561C12.0552 13.2172 9.62464 15.098 6.73576 16.1888C6.58448 16.2444 6.42016 16.2417 6.27048 16.1813C3.37465 15.098 0.944092 13.2172 0.944092 9.45561V4.18941C0.944092 3.98988 1.01726 3.79853 1.14749 3.65744C1.27772 3.51635 1.45436 3.43709 1.63854 3.43709C3.02742 3.43709 4.76353 2.53431 5.97187 1.3908C6.11899 1.25463 6.30614 1.17981 6.49965 1.17981C6.69315 1.17981 6.8803 1.25463 7.02742 1.3908C8.2427 2.54184 9.97187 3.43709 11.3608 3.43709C11.5449 3.43709 11.7216 3.51635 11.8518 3.65744C11.982 3.79853 12.0552 3.98988 12.0552 4.18941V9.45561Z" stroke="#FFF8F7" stroke-width="1.46" stroke-linecap="round" stroke-linejoin="round"/>
</svg>
