<svg width="13" height="9" viewBox="0 0 13 9" fill="none" xmlns="http://www.w3.org/2000/svg">
<path d="M0.581543 8.74357V7.2269C0.581543 6.91996 0.660536 6.63784 0.818522 6.38055C0.976508 6.12326 1.1864 5.9269 1.44821 5.79149C2.00793 5.51163 2.57668 5.30173 3.15446 5.1618C3.73224 5.02187 4.31904 4.9519 4.91488 4.9519C5.51071 4.9519 6.09751 5.02187 6.67529 5.1618C7.25307 5.30173 7.82182 5.51163 8.38154 5.79149C8.64335 5.9269 8.85324 6.12326 9.01123 6.38055C9.16922 6.63784 9.24821 6.91996 9.24821 7.2269V8.74357H0.581543ZM10.3315 8.74357V7.11857C10.3315 6.72135 10.221 6.33992 9.99977 5.9743C9.77859 5.60867 9.46488 5.29496 9.05863 5.03315C9.51904 5.08732 9.95238 5.17986 10.3586 5.31076C10.7649 5.44166 11.144 5.6019 11.4961 5.79149C11.8211 5.97204 12.0694 6.17291 12.2409 6.39409C12.4124 6.61527 12.4982 6.85676 12.4982 7.11857V8.74357H10.3315ZM4.91488 4.41024C4.31904 4.41024 3.80897 4.19808 3.38467 3.77378C2.96036 3.34947 2.74821 2.8394 2.74821 2.24357C2.74821 1.64774 2.96036 1.13767 3.38467 0.713363C3.80897 0.289057 4.31904 0.0769043 4.91488 0.0769043C5.51071 0.0769043 6.02078 0.289057 6.44508 0.713363C6.86939 1.13767 7.08154 1.64774 7.08154 2.24357C7.08154 2.8394 6.86939 3.34947 6.44508 3.77378C6.02078 4.19808 5.51071 4.41024 4.91488 4.41024ZM10.3315 2.24357C10.3315 2.8394 10.1194 3.34947 9.69508 3.77378C9.27078 4.19808 8.76071 4.41024 8.16488 4.41024C8.06557 4.41024 7.93918 4.39895 7.78571 4.37638C7.63224 4.35381 7.50585 4.32899 7.40654 4.3019C7.65029 4.01302 7.83762 3.69253 7.96852 3.34045C8.09942 2.98836 8.16488 2.62274 8.16488 2.24357C8.16488 1.8644 8.09942 1.49878 7.96852 1.1467C7.83762 0.794613 7.65029 0.474127 7.40654 0.185238C7.53293 0.140099 7.65932 0.110758 7.78571 0.0972168C7.9121 0.0836751 8.03849 0.0769043 8.16488 0.0769043C8.76071 0.0769043 9.27078 0.289057 9.69508 0.713363C10.1194 1.13767 10.3315 1.64774 10.3315 2.24357ZM1.66488 7.66024H8.16488V7.2269C8.16488 7.1276 8.14005 7.03732 8.0904 6.95607C8.04074 6.87482 7.97529 6.81163 7.89404 6.76649C7.40654 6.52274 6.91453 6.33992 6.418 6.21805C5.92147 6.09618 5.42043 6.03524 4.91488 6.03524C4.40932 6.03524 3.90828 6.09618 3.41175 6.21805C2.91522 6.33992 2.42321 6.52274 1.93571 6.76649C1.85446 6.81163 1.78901 6.87482 1.73936 6.95607C1.6897 7.03732 1.66488 7.1276 1.66488 7.2269V7.66024ZM4.91488 3.3269C5.21279 3.3269 5.46783 3.22083 5.67998 3.00867C5.89213 2.79652 5.99821 2.54149 5.99821 2.24357C5.99821 1.94565 5.89213 1.69062 5.67998 1.47847C5.46783 1.26631 5.21279 1.16024 4.91488 1.16024C4.61696 1.16024 4.36192 1.26631 4.14977 1.47847C3.93762 1.69062 3.83154 1.94565 3.83154 2.24357C3.83154 2.54149 3.93762 2.79652 4.14977 3.00867C4.36192 3.22083 4.61696 3.3269 4.91488 3.3269Z" fill="white"/>
</svg>
