<svg width="24" height="15" viewBox="0 0 24 15" fill="none" xmlns="http://www.w3.org/2000/svg">
<path d="M1.16675 6.45988C1.16675 7.89647 1.73743 9.27422 2.75325 10.29C3.76908 11.3059 5.14683 11.8765 6.58342 11.8765C8.5851 11.9511 10.4992 12.7167 12.0001 14.0432C13.501 12.7167 15.4151 11.9511 17.4167 11.8765C18.8533 11.8765 20.2311 11.3059 21.2469 10.29C22.2627 9.27422 22.8334 7.89647 22.8334 6.45988V1.04321H17.4167C15.4151 1.11777 13.501 1.8834 12.0001 3.20988C10.4992 1.8834 8.5851 1.11777 6.58342 1.04321H1.16675V6.45988Z" stroke="#E6372B" stroke-width="1.625" stroke-linecap="round" stroke-linejoin="round"/>
<path d="M5.50008 5.37655C7.12508 5.37655 8.75008 5.91821 8.75008 7.54321C6.58342 7.54321 5.50008 7.54321 5.50008 5.37655Z" stroke="#E6372B" stroke-width="1.625" stroke-linecap="round" stroke-linejoin="round"/>
<path d="M18.5001 5.37655C16.8751 5.37655 15.2501 5.91821 15.2501 7.54321C17.4167 7.54321 18.5001 7.54321 18.5001 5.37655Z" stroke="#E6372B" stroke-width="1.625" stroke-linecap="round" stroke-linejoin="round"/>
</svg>
