<svg width="15" height="17" viewBox="0 0 15 17" fill="none" xmlns="http://www.w3.org/2000/svg">
<path d="M9.27656 7.43344L7.2597 10.4683L5.89699 9.57109M13.3337 9.57109C13.3337 13.2169 10.7816 15.0398 7.74824 16.0971C7.5894 16.151 7.41686 16.1484 7.2597 16.0898C4.21908 15.0398 1.66699 13.2169 1.66699 9.57109V4.46692C1.66699 4.27353 1.74382 4.08807 1.88056 3.95132C2.01731 3.81458 2.20277 3.73775 2.39616 3.73775C3.85449 3.73775 5.67741 2.86275 6.94616 1.75442C7.10063 1.62244 7.29714 1.54993 7.50032 1.54993C7.7035 1.54993 7.90001 1.62244 8.05449 1.75442C9.33053 2.87005 11.1462 3.73775 12.6045 3.73775C12.7979 3.73775 12.9833 3.81458 13.1201 3.95132C13.2568 4.08807 13.3337 4.27353 13.3337 4.46692V9.57109Z" stroke="#FFF8F7" stroke-width="1.46434" stroke-linecap="round" stroke-linejoin="round"/>
</svg>
