<svg width="18" height="16" viewBox="0 0 18 16" fill="none" xmlns="http://www.w3.org/2000/svg">
<path d="M17.0861 13.0341L10.5787 1.77328C9.87707 0.545464 8.12305 0.545464 7.40391 1.77328L0.914046 13.0341C0.21244 14.2443 1.08945 15.7703 2.49266 15.7703H15.4899C16.9107 15.7703 17.7877 14.2443 17.0861 13.0341ZM9.00006 4.5797C9.56135 4.5797 9.99985 5.03575 9.99985 5.57949V5.64965L9.66659 10.6661C9.64905 11.0169 9.35087 11.2976 9.00006 11.2976C8.64926 11.2976 8.35108 11.0169 8.33354 10.6661L8.00027 5.64965C7.96519 5.07083 8.42124 4.5797 9.00006 4.5797ZM9.00006 13.9462C8.42124 13.9462 7.94765 13.4726 7.94765 12.8937C7.94765 12.3149 8.42124 11.8413 9.00006 11.8413C9.57889 11.8413 10.0525 12.3149 10.0525 12.8937C10.0525 13.4726 9.57889 13.9462 9.00006 13.9462Z" fill="#A3A9B6"/>
</svg>
