<svg width="12" height="16" viewBox="0 0 12 16" fill="none" xmlns="http://www.w3.org/2000/svg">
<path d="M8.02858 1.96394V0.019043H1.56208C0.791226 0.019043 0.166626 0.644093 0.166626 1.41449V14.5828C0.166626 15.3537 0.791226 15.9783 1.56208 15.9783H9.88753C10.6584 15.9783 11.283 15.3532 11.283 14.5828V3.27344H9.33808C8.61583 3.27344 8.02858 2.68574 8.02858 1.96394ZM8.91193 11.8644H2.53768C2.47063 11.8644 2.41663 11.8104 2.41663 11.7433V11.2825C2.41663 11.2155 2.47108 11.1615 2.53768 11.1615H8.91193C8.97898 11.1615 9.03298 11.2159 9.03298 11.2825V11.7433C9.03298 11.8104 8.97853 11.8644 8.91193 11.8644ZM8.91193 9.22649H2.53768C2.47063 9.22649 2.41663 9.17204 2.41663 9.10499V8.64464C2.41663 8.57759 2.47108 8.52359 2.53768 8.52359H8.91193C8.97898 8.52359 9.03298 8.57804 9.03298 8.64464V9.10499C9.03298 9.17204 8.97853 9.22649 8.91193 9.22649ZM8.91193 6.58904H2.53768C2.47063 6.58904 2.41663 6.53459 2.41663 6.46799V6.00719C2.41663 5.94014 2.47108 5.88614 2.53768 5.88614H8.91193C8.97898 5.88614 9.03298 5.94059 9.03298 6.00719V6.46799C9.03298 6.53504 8.97853 6.58904 8.91193 6.58904Z" fill="#A3A9B6"/>
</svg>
