<svg width="14" height="14" viewBox="0 0 14 14" fill="none" xmlns="http://www.w3.org/2000/svg">
<path d="M7.12126 0.250001H10.6291C11.0244 0.249987 11.3654 0.249976 11.6462 0.272931C11.9426 0.297169 12.2373 0.350683 12.521 0.495237C12.9436 0.710538 13.2888 1.05418 13.5049 1.47836C13.6494 1.762 13.7029 2.05679 13.7271 2.35297C13.75 2.63361 13.75 2.97423 13.75 3.36879V10.6316C13.75 11.0261 13.75 11.3666 13.7271 11.6471C13.7029 11.9433 13.6494 12.2378 13.5049 12.5214C13.289 12.9452 12.944 13.2894 12.521 13.5049C12.2375 13.6494 11.9429 13.7029 11.6468 13.7271C11.3662 13.75 11.0258 13.75 10.6312 13.75H7.11879C6.72423 13.75 6.38361 13.75 6.10297 13.7271C5.80679 13.7029 5.512 13.6494 5.22835 13.5049C4.80433 13.2889 4.46062 12.9439 4.24524 12.5212C4.10066 12.2374 4.04716 11.9426 4.02293 11.6461C3.99997 11.3653 3.99999 11.0243 4 10.6289L4 10.5625C4 10.1483 4.33579 9.8125 4.75 9.8125C5.16421 9.8125 5.5 10.1483 5.5 10.5625V10.6C5.5 11.0324 5.50058 11.3115 5.51794 11.524C5.53458 11.7276 5.56283 11.8031 5.58175 11.8402C5.65399 11.982 5.76887 12.0968 5.90934 12.1684C5.94625 12.1872 6.02166 12.2154 6.22514 12.2321C6.43735 12.2494 6.7161 12.25 7.14768 12.25H10.6023C11.0339 12.25 11.3125 12.2494 11.5245 12.2321C11.7277 12.2155 11.8031 12.1873 11.8401 12.1684C11.9816 12.0963 12.0967 11.9812 12.1684 11.8404C12.1873 11.8034 12.2155 11.7281 12.2321 11.5249C12.2494 11.3129 12.25 11.0343 12.25 10.6027V3.39768C12.25 2.9661 12.2494 2.68735 12.2321 2.47515C12.2154 2.27166 12.1872 2.19625 12.1684 2.15934C12.0969 2.01903 11.982 1.90407 11.8401 1.83175C11.8029 1.81281 11.7274 1.78458 11.5239 1.76794C11.3116 1.75059 11.0326 1.75 10.6001 1.75H7.15015C6.71774 1.75 6.43844 1.75058 6.22585 1.76795C6.02196 1.7846 5.94638 1.81287 5.90934 1.83175C5.76822 1.90365 5.65365 2.01822 5.58175 2.15934C5.56287 2.19638 5.5346 2.27196 5.51795 2.47585C5.50058 2.68844 5.5 2.96774 5.5 3.40015V3.43644C5.5 3.85066 5.16421 4.18644 4.75 4.18644C4.33579 4.18644 4 3.85066 4 3.43644L4 3.37125C3.99999 2.97588 3.99997 2.63474 4.02293 2.35374C4.04714 2.05721 4.10062 1.76218 4.24524 1.47836C4.46095 1.05499 4.80499 0.710952 5.22835 0.495237C5.51218 0.350619 5.80721 0.297146 6.10374 0.272927C6.38474 0.249976 6.72588 0.249987 7.12126 0.250001Z" fill="#333333"/>
<path d="M6.46967 4.21967C6.76256 3.92678 7.23744 3.92678 7.53033 4.21967L9.78033 6.46967C10.0732 6.76256 10.0732 7.23744 9.78033 7.53033L7.53033 9.78033C7.23744 10.0732 6.76256 10.0732 6.46967 9.78033C6.17678 9.48744 6.17678 9.01257 6.46967 8.71967L7.43934 7.75H1C0.585786 7.75 0.25 7.41422 0.25 7C0.25 6.58579 0.585786 6.25 1 6.25H7.43934L6.46967 5.28033C6.17678 4.98744 6.17678 4.51256 6.46967 4.21967Z" fill="#333333"/>
</svg>
