<svg width="18" height="19" viewBox="0 0 18 19" fill="none" xmlns="http://www.w3.org/2000/svg">
<path d="M16.8333 5.60246C17.5 6.26912 17.5 7.35246 16.8333 7.93579L14.5 10.2691L7.99996 3.76912L10.3333 1.43579C11 0.769124 12.0833 0.769124 12.6666 1.43579L14.1666 2.93579L16.6666 0.435791L17.8333 1.60246L15.3333 4.10246L16.8333 5.60246ZM12 10.4358L10.8333 9.26912L8.49996 11.6025L6.74996 9.85246L9.08329 7.51912L7.91663 6.35246L5.58329 8.68579L4.33329 7.51912L1.99996 9.85246C1.33329 10.5191 1.33329 11.6025 1.99996 12.1858L3.49996 13.6858L0.166626 17.0191L1.33329 18.1858L4.66663 14.8525L6.16663 16.3525C6.83329 17.0191 7.91663 17.0191 8.49996 16.3525L10.8333 14.0191L9.66663 12.8525L12 10.4358Z" fill="#A3A9B6"/>
</svg>
