<svg width="17" height="19" viewBox="0 0 17 19" fill="none" xmlns="http://www.w3.org/2000/svg">
<path d="M16.5001 0.442505L17.9101 1.8525L13.4101 6.3525H17.0001V8.3525H10.0001V1.3525H12.0001V4.9425L16.5001 0.442505ZM17.9101 16.8525L16.5001 18.2625L12.0001 13.7625V17.3525H10.0001V10.3525H17.0001V12.3525H13.4101L17.9101 16.8525ZM1.50009 0.442505L6.00009 4.9425V1.3525H8.00009V8.3525H1.00009V6.3525H4.59009L0.0900879 1.8525L1.50009 0.442505ZM0.0900879 16.8525L4.59009 12.3525H1.00009V10.3525H8.00009V17.3525H6.00009V13.7625L1.50009 18.2625L0.0900879 16.8525Z" fill="#A3A9B6"/>
<path d="M16.5001 0.442505L17.9101 1.8525L13.4101 6.3525H17.0001V8.3525H10.0001V1.3525H12.0001V4.9425L16.5001 0.442505ZM17.9101 16.8525L16.5001 18.2625L12.0001 13.7625V17.3525H10.0001V10.3525H17.0001V12.3525H13.4101L17.9101 16.8525ZM1.50009 0.442505L6.00009 4.9425V1.3525H8.00009V8.3525H1.00009V6.3525H4.59009L0.0900879 1.8525L1.50009 0.442505ZM0.0900879 16.8525L4.59009 12.3525H1.00009V10.3525H8.00009V17.3525H6.00009V13.7625L1.50009 18.2625L0.0900879 16.8525Z" fill="#A3A9B6" fill-opacity="0.2"/>
<path d="M16.5001 0.442505L17.9101 1.8525L13.4101 6.3525H17.0001V8.3525H10.0001V1.3525H12.0001V4.9425L16.5001 0.442505ZM17.9101 16.8525L16.5001 18.2625L12.0001 13.7625V17.3525H10.0001V10.3525H17.0001V12.3525H13.4101L17.9101 16.8525ZM1.50009 0.442505L6.00009 4.9425V1.3525H8.00009V8.3525H1.00009V6.3525H4.59009L0.0900879 1.8525L1.50009 0.442505ZM0.0900879 16.8525L4.59009 12.3525H1.00009V10.3525H8.00009V17.3525H6.00009V13.7625L1.50009 18.2625L0.0900879 16.8525Z" fill="#A3A9B6" fill-opacity="0.2"/>
<path d="M16.5001 0.442505L17.9101 1.8525L13.4101 6.3525H17.0001V8.3525H10.0001V1.3525H12.0001V4.9425L16.5001 0.442505ZM17.9101 16.8525L16.5001 18.2625L12.0001 13.7625V17.3525H10.0001V10.3525H17.0001V12.3525H13.4101L17.9101 16.8525ZM1.50009 0.442505L6.00009 4.9425V1.3525H8.00009V8.3525H1.00009V6.3525H4.59009L0.0900879 1.8525L1.50009 0.442505ZM0.0900879 16.8525L4.59009 12.3525H1.00009V10.3525H8.00009V17.3525H6.00009V13.7625L1.50009 18.2625L0.0900879 16.8525Z" fill="#A3A9B6" fill-opacity="0.2"/>
<path d="M16.5001 0.442505L17.9101 1.8525L13.4101 6.3525H17.0001V8.3525H10.0001V1.3525H12.0001V4.9425L16.5001 0.442505ZM17.9101 16.8525L16.5001 18.2625L12.0001 13.7625V17.3525H10.0001V10.3525H17.0001V12.3525H13.4101L17.9101 16.8525ZM1.50009 0.442505L6.00009 4.9425V1.3525H8.00009V8.3525H1.00009V6.3525H4.59009L0.0900879 1.8525L1.50009 0.442505ZM0.0900879 16.8525L4.59009 12.3525H1.00009V10.3525H8.00009V17.3525H6.00009V13.7625L1.50009 18.2625L0.0900879 16.8525Z" fill="#A3A9B6" fill-opacity="0.2"/>
<path d="M16.5001 0.442505L17.9101 1.8525L13.4101 6.3525H17.0001V8.3525H10.0001V1.3525H12.0001V4.9425L16.5001 0.442505ZM17.9101 16.8525L16.5001 18.2625L12.0001 13.7625V17.3525H10.0001V10.3525H17.0001V12.3525H13.4101L17.9101 16.8525ZM1.50009 0.442505L6.00009 4.9425V1.3525H8.00009V8.3525H1.00009V6.3525H4.59009L0.0900879 1.8525L1.50009 0.442505ZM0.0900879 16.8525L4.59009 12.3525H1.00009V10.3525H8.00009V17.3525H6.00009V13.7625L1.50009 18.2625L0.0900879 16.8525Z" fill="#A3A9B6" fill-opacity="0.2"/>
<path d="M16.5001 0.442505L17.9101 1.8525L13.4101 6.3525H17.0001V8.3525H10.0001V1.3525H12.0001V4.9425L16.5001 0.442505ZM17.9101 16.8525L16.5001 18.2625L12.0001 13.7625V17.3525H10.0001V10.3525H17.0001V12.3525H13.4101L17.9101 16.8525ZM1.50009 0.442505L6.00009 4.9425V1.3525H8.00009V8.3525H1.00009V6.3525H4.59009L0.0900879 1.8525L1.50009 0.442505ZM0.0900879 16.8525L4.59009 12.3525H1.00009V10.3525H8.00009V17.3525H6.00009V13.7625L1.50009 18.2625L0.0900879 16.8525Z" fill="#A3A9B6" fill-opacity="0.2"/>
<path d="M16.5001 0.442505L17.9101 1.8525L13.4101 6.3525H17.0001V8.3525H10.0001V1.3525H12.0001V4.9425L16.5001 0.442505ZM17.9101 16.8525L16.5001 18.2625L12.0001 13.7625V17.3525H10.0001V10.3525H17.0001V12.3525H13.4101L17.9101 16.8525ZM1.50009 0.442505L6.00009 4.9425V1.3525H8.00009V8.3525H1.00009V6.3525H4.59009L0.0900879 1.8525L1.50009 0.442505ZM0.0900879 16.8525L4.59009 12.3525H1.00009V10.3525H8.00009V17.3525H6.00009V13.7625L1.50009 18.2625L0.0900879 16.8525Z" fill="#A3A9B6" fill-opacity="0.2"/>
<path d="M16.5001 0.442505L17.9101 1.8525L13.4101 6.3525H17.0001V8.3525H10.0001V1.3525H12.0001V4.9425L16.5001 0.442505ZM17.9101 16.8525L16.5001 18.2625L12.0001 13.7625V17.3525H10.0001V10.3525H17.0001V12.3525H13.4101L17.9101 16.8525ZM1.50009 0.442505L6.00009 4.9425V1.3525H8.00009V8.3525H1.00009V6.3525H4.59009L0.0900879 1.8525L1.50009 0.442505ZM0.0900879 16.8525L4.59009 12.3525H1.00009V10.3525H8.00009V17.3525H6.00009V13.7625L1.50009 18.2625L0.0900879 16.8525Z" fill="#A3A9B6" fill-opacity="0.2"/>
<path d="M16.5001 0.442505L17.9101 1.8525L13.4101 6.3525H17.0001V8.3525H10.0001V1.3525H12.0001V4.9425L16.5001 0.442505ZM17.9101 16.8525L16.5001 18.2625L12.0001 13.7625V17.3525H10.0001V10.3525H17.0001V12.3525H13.4101L17.9101 16.8525ZM1.50009 0.442505L6.00009 4.9425V1.3525H8.00009V8.3525H1.00009V6.3525H4.59009L0.0900879 1.8525L1.50009 0.442505ZM0.0900879 16.8525L4.59009 12.3525H1.00009V10.3525H8.00009V17.3525H6.00009V13.7625L1.50009 18.2625L0.0900879 16.8525Z" fill="#A3A9B6" fill-opacity="0.2"/>
<path d="M16.5001 0.442505L17.9101 1.8525L13.4101 6.3525H17.0001V8.3525H10.0001V1.3525H12.0001V4.9425L16.5001 0.442505ZM17.9101 16.8525L16.5001 18.2625L12.0001 13.7625V17.3525H10.0001V10.3525H17.0001V12.3525H13.4101L17.9101 16.8525ZM1.50009 0.442505L6.00009 4.9425V1.3525H8.00009V8.3525H1.00009V6.3525H4.59009L0.0900879 1.8525L1.50009 0.442505ZM0.0900879 16.8525L4.59009 12.3525H1.00009V10.3525H8.00009V17.3525H6.00009V13.7625L1.50009 18.2625L0.0900879 16.8525Z" fill="#A3A9B6" fill-opacity="0.2"/>
</svg>
